<svg viewBox="0 0 128 128" xmlns="http://www.w3.org/2000/svg">
  <path fill="#2496ED" d="M124.8 52.1c-4.3-2.5-10-2.8-14.8-1.4-.6-5.2-4-9.7-8-12.9l-1.6-1.3-1.4 1.6c-2.7 3.3-3.5 8.7-3.1 12.9.3 2.8 1.2 5.7 2.9 7.9-1.3.8-2.8 1.4-4.2 2-2.8 1-5.8 1.6-8.8 1.6H0l-.2 1.7c-.4 5.4.2 10.9 1.9 16.1l.7 2 1.5 2.8c4 6.2 10.2 10 17.4 12.4 7.9 2.7 16.6 3 24.8 1.7 6.4-1 12.6-3.1 18-6.4 4.5-2.7 8.4-6.4 11.4-10.7 4.6-6.7 7.4-14.4 9-22.3h.8c5.3 0 10.4-2.1 13.9-5.8l1.1-1.2.5-1.4c.5-1.6.3-3.3-.4-4.8l-1.7-1zm-97.5 9.3H18c-.5 0-.9.4-.9.9v5.5c0 .5.4.9.9.9h9.3c.5 0 .9-.4.9-.9v-5.5c0-.5-.4-.9-.9-.9zm16.7 0h-9.3c-.5 0-.9.4-.9.9v5.5c0 .5.4.9.9.9H44c.5 0 .9-.4.9-.9v-5.5c0-.5-.4-.9-.9-.9zm16.8 0h-9.3c-.5 0-.9.4-.9.9v5.5c0 .5.4.9.9.9h9.3c.5 0 .9-.4.9-.9v-5.5c0-.5-.4-.9-.9-.9zm16.7 0h-9.3c-.5 0-.9.4-.9.9v5.5c0 .5.4.9.9.9h9.3c.5 0 .9-.4.9-.9v-5.5c0-.5-.4-.9-.9-.9zm-33.5-16.3h-9.3c-.5 0-.9.4-.9.9v5.5c0 .5.4.9.9.9H44c.5 0 .9-.4.9-.9v-5.5c0-.5-.4-.9-.9-.9zm16.8 0h-9.3c-.5 0-.9.4-.9.9v5.5c0 .5.4.9.9.9h9.3c.5 0 .9-.4.9-.9v-5.5c0-.5-.4-.9-.9-.9zm16.7 0h-9.3c-.5 0-.9.4-.9.9v5.5c0 .5.4.9.9.9h9.3c.5 0 .9-.4.9-.9v-5.5c0-.5-.4-.9-.9-.9zm0-16.2h-9.3c-.5 0-.9.4-.9.9v5.5c0 .5.4.9.9.9h9.3c.5 0 .9-.4.9-.9V29c0-.5-.4-.9-.9-.9z"/>
</svg>
