<svg viewBox="0 0 128 128" xmlns="http://www.w3.org/2000/svg">
  <path fill="#E0234E" d="M64.002 88.168a9.395 9.395 0 01-4.707-1.262L49.09 80.843c-2.236-1.25-1.143-1.695-.408-1.951.907-.312 1.087-.384 2.055-.929.1-.058.231-.035.332.024l7.845 4.655a1.011 1.011 0 00.969 0l30.593-17.659a.988.988 0 00.484-.856V29.469a.998.998 0 00-.488-.86L59.882 10.96a.992.992 0 00-.976 0L28.32 28.61a1.002 1.002 0 00-.488.86v35.297c0 .352.186.68.489.857l8.382 4.838c4.545 2.273 7.329-.403 7.329-3.085V32.335a.882.882 0 01.883-.875h3.851c.482 0 .876.393.876.875v35.042c0 6.044-3.291 9.512-9.019 9.512-1.76 0-3.145 0-7.013-1.903l-8.024-4.617a9.449 9.449 0 01-4.713-8.178V27.894a9.449 9.449 0 014.713-8.175L56.208.902a9.6 9.6 0 019.588 0l30.593 17.66a9.452 9.452 0 014.717 8.175v35.297a9.453 9.453 0 01-4.717 8.178l-30.593 17.66a9.54 9.54 0 01-4.794 1.296"/>
  <path fill="#E0234E" d="M74.312 62.965c-13.39 0-16.202-6.148-16.202-11.308 0-.482.39-.875.88-.875h3.93a.872.872 0 01.869.737c.588 3.964 2.344 5.966 10.322 5.966 6.35 0 9.049-1.436 9.049-4.801 0-1.94-.766-3.378-10.64-4.344-8.253-.808-13.36-2.64-13.36-9.248 0-6.093 5.138-9.725 13.756-9.725 9.678 0 14.472 3.36 15.079 10.566a.893.893 0 01-.226.665.879.879 0 01-.639.282h-3.947a.875.875 0 01-.852-.68c-.945-4.2-3.243-5.543-9.415-5.543-6.934 0-7.743 2.414-7.743 4.223 0 2.19.952 2.833 10.317 4.066 9.272 1.219 13.677 2.946 13.677 9.483-.001 6.584-5.488 10.336-15.055 10.336"/>
</svg>
