<svg viewBox="0 0 200 200" xmlns="http://www.w3.org/2000/svg">
  <defs>
    <linearGradient id="bilimdon" x1="0%" y1="0%" x2="100%" y2="100%">
      <stop offset="0%" style="stop-color:#3B82F6"/>
      <stop offset="100%" style="stop-color:#1D4ED8"/>
    </linearGradient>
    <linearGradient id="brain" x1="0%" y1="0%" x2="100%" y2="100%">
      <stop offset="0%" style="stop-color:#A78BFA"/>
      <stop offset="100%" style="stop-color:#7C3AED"/>
    </linearGradient>
  </defs>
  <circle cx="100" cy="100" r="95" fill="url(#bilimdon)"/>
  <circle cx="100" cy="85" r="40" fill="url(#brain)"/>
  <path d="M70 75 Q75 55 100 55 Q125 55 130 75" stroke="#fff" stroke-width="3" fill="none"/>
  <path d="M75 85 Q80 70 100 70 Q120 70 125 85" stroke="#fff" stroke-width="2" fill="none"/>
  <path d="M80 95 Q85 82 100 82 Q115 82 120 95" stroke="#fff" stroke-width="2" fill="none"/>
  <circle cx="85" cy="90" r="5" fill="#fff"/>
  <circle cx="115" cy="90" r="5" fill="#fff"/>
  <rect x="60" y="135" rx="5" width="80" height="12" fill="#fff"/>
  <rect x="55" y="150" rx="3" width="90" height="8" fill="#fff" opacity="0.8"/>
  <polygon points="100,120 90,135 110,135" fill="#FCD34D"/>
  <text x="100" y="180" text-anchor="middle" font-size="14" font-weight="bold" fill="#fff">BILIMDON</text>
</svg>
