<svg viewBox="0 0 200 200" xmlns="http://www.w3.org/2000/svg">
  <defs>
    <linearGradient id="orfan" x1="0%" y1="0%" x2="100%" y2="100%">
      <stop offset="0%" style="stop-color:#F59E0B"/>
      <stop offset="100%" style="stop-color:#D97706"/>
    </linearGradient>
    <linearGradient id="book" x1="0%" y1="0%" x2="100%" y2="100%">
      <stop offset="0%" style="stop-color:#DC2626"/>
      <stop offset="100%" style="stop-color:#B91C1C"/>
    </linearGradient>
  </defs>
  <circle cx="100" cy="100" r="95" fill="url(#orfan)"/>
  <path d="M50 60 L100 50 L150 60 L150 140 L100 150 L50 140 Z" fill="url(#book)"/>
  <line x1="100" y1="50" x2="100" y2="150" stroke="#fff" stroke-width="3"/>
  <rect x="60" y="70" rx="2" width="30" height="4" fill="#fff" opacity="0.8"/>
  <rect x="60" y="80" rx="2" width="25" height="4" fill="#fff" opacity="0.6"/>
  <rect x="60" y="90" rx="2" width="28" height="4" fill="#fff" opacity="0.7"/>
  <rect x="60" y="100" rx="2" width="22" height="4" fill="#fff" opacity="0.6"/>
  <rect x="110" y="70" rx="2" width="30" height="4" fill="#fff" opacity="0.8"/>
  <rect x="110" y="80" rx="2" width="25" height="4" fill="#fff" opacity="0.6"/>
  <rect x="110" y="90" rx="2" width="28" height="4" opacity="0.7" fill="#fff"/>
  <rect x="110" y="100" rx="2" width="22" height="4" fill="#fff" opacity="0.6"/>
  <circle cx="100" cy="35" r="12" fill="#fff"/>
  <text x="100" y="40" text-anchor="middle" font-size="12" font-weight="bold" fill="#D97706">ع</text>
  <text x="100" y="180" text-anchor="middle" font-size="16" font-weight="bold" fill="#fff">ORFAN.UZ</text>
</svg>
